HIERARCHY
ROOT Hips
{
	OFFSET 0.00000 0.00000 0.00000
	CHANNELS 6 Xposition Yposition Zposition Zrotation Yrotation Xrotation 
	JOINT LHipJoint
	{
		OFFSET 0 0 0
		CHANNELS 3 Zrotation Yrotation Xrotation
		JOINT LeftUpLeg
		{
			OFFSET 1.44361 -1.63093 0.70831
			CHANNELS 3 Zrotation Yrotation Xrotation
			JOINT LeftLeg
			{
				OFFSET 2.20103 -6.04728 0.00000
				CHANNELS 3 Zrotation Yrotation Xrotation
				JOINT LeftFoot
				{
					OFFSET 2.54154 -6.98283 0.00000
					CHANNELS 3 Zrotation Yrotation Xrotation
					JOINT LeftToeBase
					{
						OFFSET 0.05971 -0.16406 1.77582
						CHANNELS 3 Zrotation Yrotation Xrotation
						End Site
						{
							OFFSET 0.00000 -0.00000 0.90832
						}
					}
				}
			}
		}
	}
	JOINT RHipJoint
	{
		OFFSET 0 0 0
		CHANNELS 3 Zrotation Yrotation Xrotation
		JOINT RightUpLeg
		{
			OFFSET -1.65838 -1.63093 0.70830
			CHANNELS 3 Zrotation Yrotation Xrotation
			JOINT RightLeg
			{
				OFFSET -2.26926 -6.23475 0.00000
				CHANNELS 3 Zrotation Yrotation Xrotation
				JOINT RightFoot
				{
					OFFSET -2.34808 -6.45129 0.00000
					CHANNELS 3 Zrotation Yrotation Xrotation
					JOINT RightToeBase
					{
						OFFSET -0.18633 -0.51195 1.68539
						CHANNELS 3 Zrotation Yrotation Xrotation
						End Site
						{
							OFFSET -0.00000 -0.00000 0.88927
						}
					}
				}
			}
		}
	}
	JOINT LowerBack
	{
		OFFSET 0 0 0
		CHANNELS 3 Zrotation Yrotation Xrotation
		JOINT Spine
		{
			OFFSET -0.10393 2.01691 0.06920
			CHANNELS 3 Zrotation Yrotation Xrotation
			JOINT Spine1
			{
				OFFSET 0.04092 2.01302 -0.05283
				CHANNELS 3 Zrotation Yrotation Xrotation
				JOINT Neck
				{
					OFFSET 0 0 0
					CHANNELS 3 Zrotation Yrotation Xrotation
					JOINT Neck1
					{
						OFFSET -0.02870 1.58978 -0.03113
						CHANNELS 3 Zrotation Yrotation Xrotation
						JOINT Head
						{
							OFFSET 0.11532 1.54326 -0.29195
							CHANNELS 3 Zrotation Yrotation Xrotation
							End Site
							{
								OFFSET 0.04056 1.59999 -0.09535
							}
						}
					}
				}
				JOINT LeftShoulder
				{
					OFFSET 0 0 0
					CHANNELS 3 Zrotation Yrotation Xrotation
					JOINT LeftArm
					{
						OFFSET 3.30641 1.15764 0.01104
						CHANNELS 3 Zrotation Yrotation Xrotation
						JOINT LeftForeArm
						{
							OFFSET 4.63208 -0.00000 0.00000
							CHANNELS 3 Zrotation Yrotation Xrotation
							JOINT LeftHand
							{
								OFFSET 3.41924 -0.00000 -0.00000
								CHANNELS 3 Zrotation Yrotation Xrotation
								JOINT LeftFingerBase
								{
									OFFSET 0 0 0
									CHANNELS 3 Zrotation Yrotation Xrotation
									JOINT LeftHandIndex1
									{
										OFFSET 0.62537 -0.00000 -0.00000
										CHANNELS 3 Zrotation Yrotation Xrotation
										End Site
										{
											OFFSET 0.50419 -0.00000 -0.00000
										}
									}
								}
								JOINT LThumb
								{
									OFFSET 0 0 0
									CHANNELS 3 Zrotation Yrotation Xrotation
									End Site
									{
										OFFSET 0.51189 -0.00000 0.51189
									}
								}
							}
						}
					}
				}
				JOINT RightShoulder
				{
					OFFSET 0 0 0
					CHANNELS 3 Zrotation Yrotation Xrotation
					JOINT RightArm
					{
						OFFSET -3.78081 1.02180 -0.16609
						CHANNELS 3 Zrotation Yrotation Xrotation
						JOINT RightForeArm
						{
							OFFSET -4.40640 -0.00000 -0.00000
							CHANNELS 3 Zrotation Yrotation Xrotation
							JOINT RightHand
							{
								OFFSET -3.44675 -0.00000 0.00000
								CHANNELS 3 Zrotation Yrotation Xrotation
								JOINT RightFingerBase
								{
									OFFSET 0 0 0
									CHANNELS 3 Zrotation Yrotation Xrotation
									JOINT RightHandIndex1
									{
										OFFSET -0.51367 -0.00000 -0.00000
										CHANNELS 3 Zrotation Yrotation Xrotation
										End Site
										{
											OFFSET -0.41414 -0.00000 -0.00000
										}
									}
								}
								JOINT RThumb
								{
									OFFSET 0 0 0
									CHANNELS 3 Zrotation Yrotation Xrotation
									End Site
									{
										OFFSET -0.42046 -0.00000 0.42046
									}
								}
							}
						}
					}
				}
			}
		}
	}
}
MOTION
Frames: 14
Frame Time: 0.142857
0.00 0.00 0.00 0 0 0 0 0 0 -21 0 0 0 0 0 0 0 0 0 0 0 0 0 0 21 0 0 0 0 0 0 0 0 0 0 0 0 0 0 0 0 0 0 0 0 0 0 -16 0 0 21 0 0 11 0 0 0 -8 0 0 0 0 0 0 0 0 0 0 0 0 0 0 0 0 0 0 0 0 8 0 0 0 0 0 0 0 0 0 0 0 0 0 0 0 0 0
0.00 0.00 0.00 177.9340 1.8842 -171.4550 0.0000 0.0000 0.0000 -19.1584 -15.4823 -12.8572 2.9172 10.5598 30.8093 1.2740 -0.0583 -21.3328 11.6093 -18.2206 -64.7449 0.0000 0.0000 0.0000 21.0975 4.0071 -6.1932 -0.4901 -4.4889 12.4564 -0.8476 3.2947 -16.5966 -1.2038 6.9610 -19.5998 -6.0942 0.5005 -5.5130 1.4531 1.0671 2.0024 5.0542 0.3092 5.0547 -3.0926 1.6914 -7.6225 6.8171 -4.3779 36.0013 2.2983 -3.1155 13.6393 -0.0000 0.0000 0.0000 -88.0117 0.9620 20.8502 10.7754 -17.9432 -1.7061 -0.0000 -0.0000 25.9821 26.6700 -19.9024 -9.7031 -7.1250 0.0000 -0.0000 -1.1042 7.9279 0.9415 -0.0000 0.0000 0.0000 90.4373 -5.1292 -21.7144 -10.5811 17.6433 -1.6467 0.0000 0.0000 30.7277 -26.6904 -44.4247 19.3870 7.1250 -0.0000 -0.0000 23.8268 -76.6418 -17.8725
0.00 0.00 0.00 177.1840 1.6255 -171.7570 0.0000 0.0000 0.0000 -17.6953 -17.6762 -28.9223 7.6208 15.8332 51.1852 1.4607 -1.3273 -22.4651 10.2341 -17.5394 -60.2680 0.0000 0.0000 0.0000 20.8606 2.2478 -5.0878 -0.4005 -4.0630 11.2538 -0.8634 3.9287 -16.6753 -1.2683 7.1383 -20.1258 -5.5358 1.1537 -2.5236 1.3143 1.7723 2.4774 4.5724 0.7249 3.7776 -3.3800 1.6423 -7.1947 6.5950 -3.9162 35.2096 2.3382 -2.8787 13.1528 0.0000 0.0000 0.0000 -88.1851 0.7526 16.5241 10.1347 -16.9499 -1.5140 -0.0000 -0.0000 27.0708 27.3427 -20.3238 -10.1816 -7.1250 0.0000 -0.0000 -0.7244 7.3465 0.6259 0.0000 0.0000 0.0000 89.9104 -4.9450 -18.3673 -10.4665 17.4659 -1.6121 0.0000 0.0000 28.6499 -22.5409 -41.3490 15.3336 7.1250 -0.0000 -0.0000 22.8149 -72.4820 -15.1096
0.00 0.00 0.00 177.3220 5.1938 -166.9570 0.0000 0.0000 0.0000 -10.3952 -23.6512 -46.9014 4.7563 13.1040 39.7591 1.1484 -1.4209 -19.8369 9.5675 -17.1594 -58.0329 0.0000 0.0000 0.0000 18.4936 2.6499 3.3753 -0.5117 -4.5851 12.7288 -0.0017 0.1651 -0.7401 -5.6782 14.1090 -43.6760 -6.0414 3.9133 0.7260 -0.4062 5.4622 3.6136 3.0202 2.6332 2.8171 -2.9506 0.4416 -6.5073 5.6878 -3.3007 29.1646 2.0247 -2.1400 10.5030 -0.0000 0.0000 0.0000 -87.9422 3.8357 0.2378 6.6715 -11.3773 -0.6653 -0.0000 -0.0000 37.7133 25.9083 -18.8220 -8.9068 -7.1250 0.0000 -0.0000 -1.4777 9.2315 1.2219 -0.0000 0.0000 0.0000 90.9525 5.0812 12.2135 -16.9083 26.7367 -4.0460 0.0000 0.0000 11.5395 -21.4199 -37.5050 13.4330 7.1250 -0.0000 -0.0000 18.4742 -68.6519 -10.6158
0.00 0.00 0.00 176.5730 5.2425 -165.3530 0.0000 0.0000 0.0000 -16.9631 -21.7444 -35.1789 2.9598 10.6297 31.0410 1.5366 -5.1527 -22.3277 8.9149 -16.7527 -55.7955 0.0000 0.0000 0.0000 15.3186 5.3017 -5.0654 -2.5312 -9.8944 28.6355 -0.7801 -8.3298 15.9298 -4.4923 12.7881 -38.5805 -8.0450 3.4778 0.4684 -0.8800 4.9294 3.3072 3.6413 2.3383 2.5875 -3.2616 0.2312 -6.5125 6.0372 -3.2800 27.7316 2.2045 -2.0515 9.9809 0.0000 -0.0000 0.0000 -87.7323 2.2717 11.1475 8.1924 -13.8642 -0.9977 -0.0000 -0.0000 30.4008 25.3504 -19.6478 -9.0512 -7.1250 0.0000 -0.0000 -1.9225 8.4324 1.6208 0.0000 -0.0000 0.0000 91.0774 1.5785 10.4651 -16.7363 26.5088 -3.9689 0.0000 0.0000 9.4588 -22.1683 -36.3490 13.5767 7.1250 -0.0000 -0.0000 16.1878 -67.8002 -8.9638
0.00 0.00 0.00 176.4550 5.6797 -165.1780 0.0000 0.0000 0.0000 -19.7508 -20.0314 -28.8377 2.1530 9.1777 26.3529 1.7461 -6.1038 -23.7678 9.0209 -16.8212 -56.1624 0.0000 0.0000 0.0000 14.2337 8.7950 -17.4318 -7.0777 -15.3970 49.1675 -0.0142 -14.8241 10.5681 -3.0736 10.8132 -31.6524 -8.9877 3.0911 0.7283 -0.8690 4.3904 3.1667 4.1528 2.0640 2.2991 -2.8451 0.3479 -6.6339 5.7149 -2.6880 26.1867 2.0761 -1.6868 9.4084 -0.0000 0.0000 0.0000 -87.3606 0.9684 18.3613 10.2551 -17.1375 -1.5493 -0.0000 -0.0000 25.8933 26.0668 -19.7485 -9.3855 -7.1250 0.0000 -0.0000 -1.4733 8.2010 1.2485 -0.0000 0.0000 0.0000 91.3128 -0.7182 6.0387 -15.7523 25.1836 -3.5399 0.0000 0.0000 9.7358 -23.2202 -35.5764 14.0145 7.1250 -0.0000 -0.0000 14.0560 -67.3798 -7.6294
0.00 0.00 0.00 175.5700 4.9141 -167.0430 0.0000 0.0000 0.0000 -24.4140 -17.6432 -18.1866 1.3060 7.2393 20.4263 1.9757 -7.4403 -25.2512 8.8346 -16.7001 -55.5162 0.0000 0.0000 0.0000 11.6450 14.3096 -35.5113 -12.0475 -18.4107 66.1393 0.0362 -7.7228 -10.1989 -2.8674 10.4773 -30.5367 -10.6653 1.6374 2.2768 -0.5058 2.3254 3.4013 5.4291 1.0225 1.9020 -2.6794 1.0032 -5.7278 5.3794 -1.6859 25.4599 2.0204 -1.2703 8.9263 0.0000 -0.0000 0.0000 -86.7593 -1.7695 26.0412 14.1956 -23.0136 -2.9041 -0.0000 -0.0000 22.1268 27.8427 -19.8560 -10.1709 -7.1250 0.0000 -0.0000 -0.3495 7.7647 0.2991 0.0000 -0.0000 0.0000 91.7665 -5.3712 -2.9604 -13.6741 22.2668 -2.7034 0.0000 0.0000 14.6557 -22.1115 -37.4884 13.8889 7.1250 -0.0000 -0.0000 17.5923 -68.8524 -10.1762
0.00 0.00 0.00 176.0720 2.9699 -168.1520 0.0000 0.0000 0.0000 -26.2996 -14.4414 -8.4521 0.8052 5.7270 15.9942 2.4635 -8.5997 -28.2596 9.6184 -17.1896 -58.2052 0.0000 0.0000 0.0000 5.5375 19.5796 -52.9319 -7.2524 -15.5408 49.8225 -1.0699 -4.4300 -21.6098 -2.7471 10.2739 -29.8683 -10.6597 0.2296 3.9477 0.6671 0.2045 3.3076 6.6888 -0.0208 1.2291 -2.2052 -1.4590 -4.6809 4.4222 -0.7343 24.8632 1.9139 0.6029 8.5019 -0.0000 -0.0000 0.0000 -86.6120 -6.2599 33.4244 19.9338 -30.5625 -5.4976 -0.0000 -0.0000 18.2661 30.1345 -19.8756 -11.1640 -7.1250 0.0000 -0.0000 1.1067 7.2980 -0.9573 -0.0000 -0.0000 0.0000 92.8701 -11.4880 -21.8774 -10.3616 17.3033 -1.5808 0.0000 0.0000 25.9906 -19.0386 -37.7998 11.9422 7.1250 -0.0000 -0.0000 21.7413 -68.1842 -12.3270
0.00 0.00 0.00 175.5630 -0.2245 -169.4920 0.0000 0.0000 0.0000 -28.3669 -12.1832 0.9769 0.7259 5.4439 15.1791 2.6282 -11.8171 -29.2382 9.6343 -17.1990 -58.2589 0.0000 0.0000 0.0000 3.3255 16.6490 -56.5639 -3.8378 -11.9414 35.5249 0.0121 -4.9017 -6.5661 -2.3391 9.5393 -27.4975 -10.1761 -0.6709 5.1104 1.5380 -1.5667 4.3139 7.3910 -1.1997 1.9608 -2.6330 -1.1268 -3.3420 4.8448 -0.4813 22.9807 2.0952 0.6257 7.6126 0.0000 0.0000 0.0000 -87.2673 -8.3431 37.9100 24.1975 -35.3724 -7.8206 -0.0000 -0.0000 16.6957 32.1715 -21.6560 -13.0690 -7.1250 0.0000 -0.0000 2.1217 4.8640 -1.9355 0.0000 0.0000 0.0000 93.7779 -13.7937 -49.6862 -7.1650 12.1905 -0.7661 0.0000 0.0000 47.6327 -15.9244 -38.9218 10.1625 7.1250 -0.0000 -0.0000 26.9087 -68.2105 -15.4207
0.00 0.00 0.00 176.1320 -2.1995 -166.4070 0.0000 0.0000 0.0000 -26.6305 -10.8678 4.4912 1.1435 6.7906 19.0964 0.5918 -4.2397 -13.7101 9.0936 -16.8676 -56.4133 0.0000 0.0000 0.0000 6.9410 17.7213 -50.8304 -5.1958 -13.6009 41.6618 -0.9281 -1.4269 -18.7690 -2.1126 9.0968 -26.0985 -6.1633 -1.1268 4.3074 3.0066 -2.0103 4.3332 6.6407 -1.3609 2.3982 -3.1515 -0.5275 -3.5684 3.5369 0.3845 21.0768 1.7698 0.7622 6.9995 -0.0000 0.0000 0.0000 -90.5868 -5.6870 34.7175 18.8043 -29.1748 -4.9351 -0.0000 -0.0000 19.4595 30.4046 -21.2214 -11.9918 -7.1250 0.0000 -0.0000 1.0879 5.7451 -0.9737 -0.0000 0.0000 0.0000 91.9228 -11.6819 -59.6340 -6.3923 10.9148 -0.6113 0.0000 0.0000 59.1854 -14.9541 -39.0904 9.5597 7.1250 -0.0000 -0.0000 28.2513 -68.0551 -16.1384
0.00 0.00 0.00 175.9770 -0.7639 -164.3580 0.0000 0.0000 0.0000 -25.1302 -7.6593 -5.5521 3.5965 11.6032 34.3424 -0.1622 7.4566 -0.3705 9.8256 -17.3106 -58.9039 0.0000 0.0000 0.0000 10.8546 17.3280 -40.5090 -3.6426 -11.6690 34.5710 -1.4612 1.8954 -22.3210 -1.3368 7.3208 -20.6694 -5.0674 -0.8620 3.1366 3.1230 -1.5087 3.6999 6.1090 -1.0279 2.2801 -3.0816 -0.0246 -4.6241 2.5903 1.1259 20.6280 1.4980 0.9937 7.0237 -0.0000 -0.0000 0.0000 -90.4283 -1.8526 26.6868 12.1207 -19.9855 -2.1434 -0.0000 -0.0000 24.5345 27.7200 -22.2715 -11.2628 -7.1250 0.0000 -0.0000 -0.7330 5.1541 0.6642 -0.0000 -0.0000 0.0000 88.5908 -5.6201 -29.6385 -8.3792 14.1656 -1.0430 0.0000 0.0000 36.9748 -19.0338 -38.3469 12.0811 7.1250 -0.0000 -0.0000 22.4744 -68.6730 -13.0042
0.00 0.00 0.00 179.0750 2.6502 -171.7740 0.0000 0.0000 0.0000 -6.3894 -20.2138 -51.1087 2.3531 9.5659 27.5819 0.8597 1.6343 -18.1786 10.8050 -17.8383 -62.1467 0.0000 0.0000 0.0000 24.1878 2.4472 2.5162 -0.5895 -4.9157 13.6684 -2.1358 8.7312 -26.2479 -2.1843 9.2398 -26.5484 -3.4077 3.5237 4.7975 0.5838 4.9233 4.7551 2.3435 2.5006 1.8929 -2.6337 0.1003 -6.2929 3.3965 -1.9830 24.3898 1.3218 -1.4469 8.6637 0.0000 -0.0000 0.0000 -86.6226 4.4965 -11.6194 4.5464 -7.8174 -0.3108 -0.0000 -0.0000 46.5606 25.6412 -18.6092 -8.7086 -7.1250 0.0000 -0.0000 -1.6294 9.5059 1.3385 0.0000 -0.0000 0.0000 91.6335 17.7147 32.4346 -28.9498 39.9761 -10.7285 0.0000 0.0000 0.2738 -17.7973 -33.0226 9.9230 7.1250 -0.0000 -0.0000 18.0527 -63.4159 -8.2005
0.00 0.00 0.00 177.7140 -0.9961 -168.7900 0.0000 0.0000 0.0000 -20.8845 -9.9555 -20.3455 8.7763 16.6616 55.3131 0.0067 3.3640 -5.1200 12.4436 -18.5719 -67.3880 0.0000 0.0000 0.0000 17.9380 13.6780 -26.5347 -1.6164 -8.0166 22.7646 -0.9474 1.1708 -18.0394 -1.6962 8.2023 -23.3303 -5.8730 -0.6904 2.4865 2.8262 -1.2614 4.1450 6.2401 -0.9665 3.0902 -5.2309 -1.1239 -7.5138 3.7518 0.5252 26.9700 2.3958 0.8718 9.7406 0.0000 0.0000 0.0000 -90.9099 -1.1100 13.1373 9.3420 -15.7038 -1.2911 -0.0000 -0.0000 28.8492 26.5474 -20.3084 -9.8375 -7.1250 0.0000 -0.0000 -1.2287 7.5094 1.0578 0.0000 0.0000 0.0000 87.0191 4.1937 4.8477 -14.2568 23.1006 -2.9281 0.0000 0.0000 12.1814 -21.1855 -37.7744 13.3556 7.1250 -0.0000 -0.0000 19.1037 -68.8271 -11.0622
0.00 0.00 0.00 177.6050 3.8407 -169.6620 0.0000 0.0000 0.0000 -18.6828 -19.2305 -26.9694 1.7549 8.3358 23.7388 1.3230 -3.0529 -20.9553 9.7602 -17.2728 -58.6838 0.0000 0.0000 0.0000 17.0202 6.9168 -5.6959 -2.8788 -10.4963 30.5992 -0.0864 2.7994 -5.2825 -2.9717 10.6492 -31.1056 -7.7535 3.0139 -0.7164 -0.5175 4.4784 4.0292 3.9655 2.0483 4.0615 -5.6892 1.0006 -6.3494 10.1500 -3.5313 29.2049 4.1028 -2.1602 10.5896 -0.0000 -0.0000 0.0000 -88.5326 0.7081 21.8586 11.6847 -19.3302 -1.9967 -0.0000 -0.0000 22.2026 26.0441 -20.0340 -9.5039 -7.1250 0.0000 -0.0000 -1.5190 7.8961 1.2964 -0.0000 -0.0000 0.0000 92.8097 6.5068 -1.6699 -10.4039 17.3689 -1.5934 0.0000 0.0000 21.3796 -20.4802 -36.5252 12.5326 7.1250 -0.0000 -0.0000 18.4529 -67.4558 -10.1059
